<?xml version="1.0" encoding="UTF-8" standalone="no"?>
<svg
   xmlns:dc="http://purl.org/dc/elements/1.1/"
   xmlns:cc="http://creativecommons.org/ns#"
   xmlns:rdf="http://www.w3.org/1999/02/22-rdf-syntax-ns#"
   xmlns:svg="http://www.w3.org/2000/svg"
   xmlns="http://www.w3.org/2000/svg"
   xmlns:sodipodi="http://sodipodi.sourceforge.net/DTD/sodipodi-0.dtd"
   xmlns:inkscape="http://www.inkscape.org/namespaces/inkscape"
   width="60mm"
   height="60mm"
   viewBox="0 0 60 60"
   version="1.1"
   id="svg8"
   inkscape:version="1.0.2 (394de47547, 2021-03-26)"
   sodipodi:docname="logo_big.svg">
  <title
     id="title833">COTLTrack</title>
  <defs
     id="defs2">
    <inkscape:path-effect
       effect="fillet_chamfer"
       id="path-effect837"
       is_visible="true"
       lpeversion="1"
       satellites_param="F,1,0,1,0,0.34,0,1 @ F,1,0,1,0,0.34,0,1 @ F,1,0,1,0,0.34,0,1 @ F,1,0,1,0,0.34,0,1"
       unit="mm"
       method="auto"
       mode="F"
       radius="34"
       chamfer_steps="1"
       flexible="true"
       use_knot_distance="true"
       apply_no_radius="true"
       apply_with_radius="true"
       only_selected="false"
       hide_knots="false" />
    <filter
       inkscape:label="Black Light"
       inkscape:menu="Color"
       inkscape:menu-tooltip="Light areas turn to black"
       style="color-interpolation-filters:sRGB;"
       id="filter869">
      <feColorMatrix
         type="luminanceToAlpha"
         result="result2"
         id="feColorMatrix861" />
      <feComposite
         in2="SourceGraphic"
         operator="arithmetic"
         in="result2"
         k3="2"
         result="result4"
         id="feComposite863" />
      <feBlend
         in="result4"
         mode="multiply"
         result="result3"
         in2="result2"
         id="feBlend865" />
      <feComposite
         in2="SourceGraphic"
         operator="in"
         in="result3"
         id="feComposite867" />
    </filter>
  </defs>
  <sodipodi:namedview
     id="base"
     pagecolor="#ffffff"
     bordercolor="#666666"
     borderopacity="1.0"
     inkscape:pageopacity="0.0"
     inkscape:pageshadow="2"
     inkscape:zoom="2.8"
     inkscape:cx="103.79985"
     inkscape:cy="123.72406"
     inkscape:document-units="mm"
     inkscape:current-layer="layer1"
     inkscape:document-rotation="0"
     showgrid="false"
     inkscape:window-width="1920"
     inkscape:window-height="1052"
     inkscape:window-x="0"
     inkscape:window-y="0"
     inkscape:window-maximized="1" />
  <metadata
     id="metadata5">
    <rdf:RDF>
      <cc:Work
         rdf:about="">
        <dc:format>image/svg+xml</dc:format>
        <dc:type
           rdf:resource="http://purl.org/dc/dcmitype/StillImage" />
        <dc:title>COTLTrack</dc:title>
        <dc:creator>
          <cc:Agent>
            <dc:title>Yuri Kulagin</dc:title>
          </cc:Agent>
        </dc:creator>
        <dc:subject>
          <rdf:Bag>
            <rdf:li>COTL</rdf:li>
            <rdf:li>COTLTrack</rdf:li>
            <rdf:li>Automation</rdf:li>
            <rdf:li>Tracker</rdf:li>
          </rdf:Bag>
        </dc:subject>
        <dc:description>COTLTracker a toll to automate your in-game musical instruments play.
Kulagin Yuri | @jkulvich
https://github.com/jkulvich/COTLTracker</dc:description>
      </cc:Work>
    </rdf:RDF>
  </metadata>
  <g
     inkscape:label="Layer 1"
     inkscape:groupmode="layer"
     id="layer1">
    <path
       style="fill:#3949ab;stroke-width:4.99999;stroke-linejoin:round;fill-opacity:1"
       id="rect835"
       width="58"
       height="58"
       x="0.99999994"
       y="1"
       inkscape:path-effect="#path-effect837"
       d="M 20.72,1 H 39.28 A 19.72,19.72 45 0 1 59,20.72 l 0,18.56 A 19.72,19.72 135 0 1 39.28,59 H 20.72 A 19.72,19.72 45 0 1 0.99999994,39.28 V 20.72 A 19.72,19.72 135 0 1 20.72,1 Z"
       sodipodi:type="rect" />
    <path
       style="fill:#000000;stroke-width:0.999999"
       id="path853"
       d="" />
    <path
       style="fill:#1a237e;stroke-width:0.999997;fill-opacity:0.50026178"
       d="M 27.709567,55.669408 C 22.019934,55.348363 17.004447,53.932819 13.258386,51.590762 8.1092032,48.371478 5.7930454,43.747565 6.7894247,38.676284 c 0.4358998,-2.218618 1.5331857,-4.263359 3.4760513,-6.47748 3.183797,-3.628306 6.127905,-8.432157 7.813888,-12.749788 0.363197,-0.930108 0.750803,-2.065339 0.990733,-2.901673 0.110984,-0.386893 0.215241,-0.747299 0.231653,-0.800917 0.02489,-0.08136 -0.06523,-0.06535 -0.544021,0.09647 -3.484293,1.177618 -7.224802,-1.127694 -7.75913,-4.782035 -0.09301,-0.636193 -0.03827,-1.7094841 0.116847,-2.2880946 0.287449,-1.0725991 0.787006,-1.9463459 1.557205,-2.7236243 2.866276,-2.8926113 7.669935,-2.1338572 9.496956,1.5000752 0.288186,0.5731934 0.456726,1.0860719 0.549011,1.6706626 0.146448,0.9277011 0.245415,1.7990161 0.281329,2.4766761 l 0.03803,0.718094 h 0.399595 0.399605 l 0.01646,-3.5904556 c 0.01627,-3.5480761 0.01794,-3.5932216 0.142584,-3.8249337 0.430806,-0.8005123 1.466511,-0.9705744 2.093356,-0.3437298 0.376231,0.3762201 0.356879,0.1711119 0.389025,4.1246926 l 0.02926,3.6051175 1.0405,0.01609 1.0405,0.01609 0.0012,-3.4452681 c 8.87e-4,-1.8948958 0.02548,-3.5488255 0.05474,-3.675411 0.08471,-0.3652245 0.345492,-0.687827 0.706246,-0.8736429 0.275334,-0.1418253 0.370941,-0.1617563 0.659127,-0.1374622 0.391907,0.033076 0.791477,0.2411383 0.985038,0.5129721 0.283659,0.3983708 0.289917,0.4882599 0.289917,4.168144 v 3.4505321 l 1.09912,-0.0159 1.09912,-0.0159 0.02926,-3.6051183 0.02927,-3.6051042 0.142232,-0.2483308 c 0.329242,-0.5748287 1.047001,-0.8095262 1.645665,-0.5381092 0.328147,0.1487592 0.503036,0.3092912 0.665179,0.6105827 0.124687,0.2317109 0.126388,0.2767986 0.142565,3.8278024 l 0.01646,3.5933254 0.33534,-0.01756 0.335326,-0.01757 0.04206,-0.75591 c 0.05394,-0.970378 0.136019,-1.559235 0.278643,-1.9992251 0.0627,-0.193435 0.168596,-0.589123 0.235308,-0.8792908 0.214492,-0.9330246 0.711293,-1.8374416 1.419854,-2.5848444 0.554672,-0.5850759 1.063551,-0.9672888 1.717207,-1.2897885 3.051585,-1.5056047 6.811594,-0.060735 8.08497,3.1067264 0.340663,0.8473647 0.414934,1.2529393 0.414414,2.2627124 -4.37e-4,0.807486 -0.01812,0.971887 -0.159037,1.477264 -0.295286,1.058883 -0.778004,1.893399 -1.539053,2.660693 -0.956847,0.964708 -2.13154,1.550234 -3.467917,1.728594 -0.899701,0.120083 -2.110435,-0.03308 -2.884602,-0.364949 -0.14312,-0.06131 -0.268684,-0.103039 -0.279046,-0.09267 -0.06604,0.06593 0.737041,2.556662 1.224519,3.797951 1.669258,4.250461 4.547775,8.990735 7.564115,12.456404 1.478946,1.699259 1.968927,2.392032 2.651127,3.748368 1.436776,2.856526 1.697036,5.863945 0.753362,8.705028 -1.428891,4.301886 -5.650329,7.820273 -11.688727,9.742036 -1.650933,0.525418 -3.667482,0.980404 -5.510245,1.243236 -2.33347,0.332825 -5.506583,0.460886 -7.972285,0.321749 z m 1.054514,-7.980351 c -4.38e-4,-0.0081 -0.03988,-0.144137 -0.08793,-0.30241 -0.07641,-0.251836 -0.08725,-2.28443 -0.08725,-16.281626 V 15.111157 h -1.055155 -1.05515 v 16.205694 16.205694 l 0.190508,0.03342 c 0.274172,0.04807 2.096353,0.163845 2.095027,0.133099 z m 4.004653,-0.105001 c 0.34835,-0.02927 0.65831,-0.06868 0.688772,-0.08747 0.03458,-0.02132 0.05545,-6.116369 0.05545,-16.21109 V 15.108658 l -1.128429,0.0159 -1.128429,0.0159 -0.01442,16.109042 c -0.0092,10.655763 -0.03435,16.146326 -0.07331,16.219156 -0.138663,0.259107 -0.122838,0.260248 1.600302,0.115384 z M 23.840662,31.11435 V 15.111172 h -0.407686 -0.407682 l -0.0287,0.190518 c -0.01572,0.104771 -0.05774,0.546627 -0.09323,0.98188 -0.315492,3.869192 -1.459354,8.32542 -3.19749,12.456681 -0.417907,0.993302 -0.685499,1.569574 -1.565147,3.370639 -0.989475,2.025931 -1.702948,3.737062 -2.309369,5.538543 -0.355186,1.055149 -0.491119,1.679987 -0.489413,2.249701 0.0081,2.696019 2.018705,5.011831 5.544419,6.385839 0.838272,0.326681 2.501814,0.814263 2.822376,0.827229 l 0.131898,0.0058 z m 12.984267,15.84712 c 2.793273,-0.676614 5.246643,-2.051069 6.433429,-3.604184 0.896947,-1.173817 1.234694,-2.105031 1.240663,-3.42067 0.0035,-0.718786 -0.0092,-0.80532 -0.222708,-1.524105 -0.210505,-0.709276 -0.699964,-2.072482 -1.062896,-2.960304 -0.544955,-1.333088 -0.84008,-1.986559 -1.641388,-3.634415 -0.493862,-1.015592 -1.095061,-2.308156 -1.336017,-2.872372 -1.618615,-3.790092 -2.70138,-7.731849 -3.172168,-11.548082 -0.06812,-0.551973 -0.209605,-2.081414 -0.209605,-2.265363 0,-0.01143 -0.15828,-0.02086 -0.351728,-0.02086 H 36.150794 V 31.11541 47.119704 l 0.161202,-0.03653 c 0.08864,-0.02006 0.319479,-0.07492 0.512926,-0.121747 z"
       id="path921" />
    <path
       style="fill:#fefefe;fill-opacity:1;stroke-width:0.999999"
       d="m 33.638047,52.910279 c -0.375618,-0.218778 -0.237111,-0.541748 0.422133,-0.984322 2.479263,-1.664417 8.291794,-7.431409 9.953646,-9.875665 0.390725,-0.57468 0.391078,-0.708844 0.0018,-0.708844 -0.124259,0 -0.436135,-0.107245 -0.69306,-0.238315 -0.512348,-0.26138 -0.925735,-0.869063 -1.84802,-2.716612 -2.182508,-4.372062 -2.148621,-7.748826 0.102147,-10.179935 0.91152,-0.984549 1.961902,-1.514603 2.835144,-1.430694 0.506007,0.04863 0.694664,0.137263 1.051424,0.494021 0.646226,0.646226 0.658881,1.349193 0.07423,4.122926 -0.437712,2.076618 -0.45756,2.270923 -0.464523,4.547426 -0.007,2.28049 0.0033,2.38883 0.253125,2.63908 0.374035,0.374849 0.724337,0.228881 1.367827,-0.569964 1.011458,-1.255648 2.729962,-2.939615 2.999905,-2.939615 0.141099,0 0.256546,0.0356 0.256546,0.0791 0,0.09613 -4.668731,6.342572 -6.743807,9.02274 -3.842551,4.963037 -6.811193,8.069879 -8.308837,8.695633 -0.481802,0.201311 -0.959989,0.217651 -1.259762,0.04305 z M 25.514888,41.18307 c 0.116029,-0.618479 2.163619,-8.268649 3.024348,-11.299504 1.622379,-5.712843 2.36734,-7.646475 3.494975,-9.07161 1.103155,-1.394199 3.311837,-2.567725 4.249968,-2.258114 0.580426,0.191559 0.797378,0.680811 0.740165,1.669156 -0.05879,1.015397 -0.341783,1.617249 -2.330817,4.956805 -3.144278,5.279193 -4.192226,7.056543 -4.251139,7.21007 -0.03323,0.08659 0.421185,-0.166355 1.009805,-0.562104 1.401218,-0.942082 3.318475,-1.937015 4.763124,-2.47175 2.189287,-0.810364 2.518474,-0.734061 2.518474,0.583763 0,0.434883 -0.109506,1.11798 -0.254806,1.589457 -0.777591,2.523182 -1.479421,2.985423 -5.283392,3.47976 -0.823783,0.107053 -1.61076,0.252282 -1.748836,0.322734 -0.769201,0.39247 -0.913055,1.421059 -0.314336,2.247567 0.356378,0.491966 1.264863,1.276151 1.941456,1.675824 0.433353,0.255989 0.438318,0.320251 0.0388,0.502279 -0.278009,0.12667 -0.403634,0.09324 -1.088016,-0.289484 -1.629507,-0.911271 -2.879809,-2.258392 -3.186528,-3.433279 l -0.141691,-0.542742 -0.76296,1.507616 c -0.419629,0.829187 -1.073624,2.199611 -1.453322,3.045384 -0.424629,0.945856 -0.757697,1.537769 -0.865301,1.537769 -0.13273,0 -0.156853,-0.0964 -0.09998,-0.399597 z M 11.234873,39.559484 c 0,-0.323639 0.03458,-0.341775 1.050666,-0.550923 1.523771,-0.313653 3.793204,-1.210781 4.919492,-1.944722 1.857104,-1.210174 2.639794,-2.246522 2.636215,-3.49057 -0.0041,-1.425061 -0.606394,-2.143445 -4.24851,-5.067397 -3.068215,-2.463217 -3.816539,-3.160823 -4.462168,-4.159736 -0.716808,-1.109042 -0.996456,-2.027482 -1.068656,-3.509774 -0.088408,-1.815105 0.292868,-3.210356 1.389207,-5.083684 2.315723,-3.956897 8.097243,-7.7307112 13.162486,-8.5916438 3.805746,-0.6468567 7.731034,0.3738978 10.025311,2.6070417 1.261786,1.2281631 1.852307,2.6311961 1.56288,3.7132811 -0.268593,1.004185 -1.151737,1.649168 -5.855318,4.276288 -5.725431,3.197863 -7.769352,5.040195 -7.773154,7.006499 -0.0016,0.842452 0.374054,1.538721 1.689584,3.131387 1.416051,1.714362 1.746603,2.375927 1.746603,3.495652 0,1.145307 -0.419505,1.990482 -1.557759,3.138416 -1.382181,1.393937 -2.975504,2.332554 -6.024335,3.548898 -1.762683,0.703231 -3.094377,1.09967 -5.081882,1.512848 -1.924139,0.400006 -2.110662,0.39719 -2.110662,-0.03186 z"
       id="path887" />
  </g>
</svg>
